# xmcd
#
# Track frame offsets:
#	150
#	21464
#	38904
#	53839
#	80003
#	112475
#	136029
#	156638
#	181627
#
# Disc length: 2790 seconds
#
# Revision: 1
# Processed by: cddbd v1.5.2PL0 Copyright (c) Steve Scherf et al.
# Submitted via: audiograbber 1.83.01
#
DISCID=7b0ae409
DTITLE=Dire Straits - Live in Koln 79
DYEAR=1979
DGENRE=
TTITLE0=Follow me Home
TTITLE1=News
TTITLE2=What's the Matter Baby
TTITLE3=Lions
TTITLE4=Sultans of Swing
TTITLE5=Wild west End
TTITLE6=Where do you Think Going?
TTITLE7=Eastbound Train
TTITLE8=Sultans of Swing
EXTD=
EXTT0=
EXTT1=
EXTT2=
EXTT3=
EXTT4=
EXTT5=
EXTT6=
EXTT7=
EXTT8=
PLAYORDER=
